
	<svg xmlns="http://www.w3.org/2000/svg" xmlns:xlink="http://www.w3.org/1999/xlink" version="1.1" width="128" height="128" viewBox="0 0 100 100">


		<defs>
			<g id="background">
<path fill="url(#background-gradient)" stroke="none" d=" M 90.75 23.05 Q 89.5 23.05 88.85 24.15 88.15 25.25 88.85 26.35 97.25 40.2 95.15 56.15 93.05 71.65 81.75 82.6 70.35 93.7 54.9 95.25 32.95 97.55 17.6 81.85 2.2 66.2 4.85 44.2 6.6 30.2 16.15 19.7 25.65 9.1 39.25 5.8 50.55 3 61.7 5.95 62.85 6.3 63.7 5.65 64.6 5 64.6 3.85 64.6 2.25 62.95 1.7 52.55 -1.1 41.6 0.65 25.55 3.3 14.4 14.85 3.1 26.25 0.65 42.4 -2.95 66.9 14 84.5 30.85 102.1 55.2 99.7 72.6 97.9 85.2 85.4 97.95 72.8 99.7 55.35 101.45 38.55 92.75 24.05 92.05 23.05 90.75 23.05 Z"/>
</g><mask id="mask">
<path fill="#FFFFFF" stroke="none" d=" M 82.2 82.15 Q 95.5 68.85 95.5 49.95 95.5 31.1 82.2 17.8 68.85 4.5 50 4.5 31.15 4.5 17.8 17.8 4.5 31.1 4.5 49.95 4.5 68.85 17.8 82.15 31.15 95.45 50 95.45 68.85 95.45 82.2 82.15 Z"/>
</mask>
			
	<linearGradient id="background-gradient" x1="0" y1="0" y2="1" x2="0" >
		<stop stop-color="#3a90ed" offset="0%"/>
		<stop stop-color="#3a90ed" offset="100%"/>
	</linearGradient>

			
			
			<g transform="scale(1.941747572815534) translate(-4 -5.250000953674316)" id="picture"><path d="M54.2 19.9L32 8.6c-1.3-.7-3.2-.7-4.5 0L5.3 19.9C4.5 20.4 4 21 4 21.7s.5 1.4 1.3 1.8L12 27v13c0 .3.2.7.5.9.3.1 6.9 4.1 17.5 4.1 5 0 9-.9 12-1.8v3c-1.7.4-3 2-3 3.9 0 2.2 1.8 4 4 4s4-1.8 4-4c0-1.9-1.3-3.4-3-3.9v-3.6c2.2-.8 3.4-1.6 3.5-1.6.3-.2.5-.5.5-.9V27c0-.1 0-.2-.1-.3l6.2-3.2c.8-.4 1.3-1.1 1.3-1.8.1-.7-.4-1.3-1.2-1.8zM45 50c0 1.1-.9 2-2 2s-2-.9-2-2 .9-2 2-2 2 .9 2 2zm-15-7c-8.5 0-14.3-2.7-16-3.6V28l13.5 6.9c.6.3 1.4.5 2.2.5.8 0 1.6-.2 2.2-.5l10-5.1v11.3C39.1 42 35 43 30 43zm16-3.6c-.4.2-1.1.5-2 .9V28.8l2-1v11.6zm7.3-17.6L31.1 33.1c-.7.4-2 .4-2.6 0L6.2 21.8l22.2-11.4c.7-.4 2-.4 2.6 0l22.3 11.4c0-.1 0-.1 0 0z M18.9 19.6c-.2-.5-.8-.7-1.3-.4l-4 2c-.5.2-.7.8-.4 1.3.2.4.5.6.9.6.1 0 .3 0 .4-.1l4-2c.4-.4.6-1 .4-1.4zm2.7 1.5l-4 2c-.5.2-.7.8-.4 1.3.2.4.5.6.9.6.1 0 .3 0 .4-.1l4-2c.5-.2.7-.8.4-1.3-.3-.5-.9-.7-1.3-.5z"/></g>
			
	<linearGradient id="picture-gradient" x1="0" y1="0" y2="1" x2="0" >
		<stop stop-color="#3a90ed" offset="0%"/>
		<stop stop-color="#3a90ed" offset="100%"/>
	</linearGradient>

		</defs>

		

			<use xlink:href="#background" fill="url(#background-gradient)" />

		

			<g mask="url(#mask)">
				<g transform="
				        translate(
                                50 50
)
                            translate(0 0)  scale(0.5)  
                            translate(
                                -50 -50
)">
						<use xlink:href="#picture" fill="url(#picture-gradient)"  />
				</g>
			</g>

		



	</svg>
