
	<svg xmlns="http://www.w3.org/2000/svg" xmlns:xlink="http://www.w3.org/1999/xlink" version="1.1" width="128" height="128" viewBox="0 0 100 100">


		<defs>
			<g id="background">
<path fill="url(#background-gradient)" stroke="none" d=" M 90.75 23.05 Q 89.5 23.05 88.85 24.15 88.15 25.25 88.85 26.35 97.25 40.2 95.15 56.15 93.05 71.65 81.75 82.6 70.35 93.7 54.9 95.25 32.95 97.55 17.6 81.85 2.2 66.2 4.85 44.2 6.6 30.2 16.15 19.7 25.65 9.1 39.25 5.8 50.55 3 61.7 5.95 62.85 6.3 63.7 5.65 64.6 5 64.6 3.85 64.6 2.25 62.95 1.7 52.55 -1.1 41.6 0.65 25.55 3.3 14.4 14.85 3.1 26.25 0.65 42.4 -2.95 66.9 14 84.5 30.85 102.1 55.2 99.7 72.6 97.9 85.2 85.4 97.95 72.8 99.7 55.35 101.45 38.55 92.75 24.05 92.05 23.05 90.75 23.05 Z"/>
</g><mask id="mask">
<path fill="#FFFFFF" stroke="none" d=" M 82.2 82.15 Q 95.5 68.85 95.5 49.95 95.5 31.1 82.2 17.8 68.85 4.5 50 4.5 31.15 4.5 17.8 17.8 4.5 31.1 4.5 49.95 4.5 68.85 17.8 82.15 31.15 95.45 50 95.45 68.85 95.45 82.2 82.15 Z"/>
</mask>
			
	<linearGradient id="background-gradient" x1="0" y1="0" y2="1" x2="0" >
		<stop stop-color="#3a90ed" offset="0%"/>
		<stop stop-color="#3a90ed" offset="100%"/>
	</linearGradient>

			
			
			<g transform="scale(3.3222588835864744) translate(0 0.05000114440917969)" id="picture"><path d="M29.5 30H.5c-.3 0-.5-.2-.5-.5v-1.2c0-3.4 2.2-6.4 5.4-7.6l3.2-1.6c.2-.1.4-.1.6.1 1.6 1.7 3.6 2.7 5.8 2.7 2.1 0 4.2-1 5.8-2.7.2-.2.4-.2.6-.1l3.4 1.9c3.2 1.1 5.3 4.2 5.3 7.5v.9c0 .1-.1.3-.1.4s-.4.2-.5.2zM1 29h28v-.4c0-3-1.9-5.6-4.7-6.6h-.1l-3.1-1.7C19.3 22 17.2 23 14.9 23c-2.3 0-4.5-1-6.2-2.8l-2.9 1.5c-2.9 1-4.8 3.7-4.8 6.6v.7zm11.5-17h-1c-.3 0-.5-.2-.5-.5s.2-.5.5-.5h1c.3 0 .5.2.5.5s-.2.5-.5.5zm6 0h-1c-.3 0-.5-.2-.5-.5s.2-.5.5-.5h1c.3 0 .5.2.5.5s-.2.5-.5.5z M14.9 21c-3.1 0-6-2.7-7.1-6.5-1 0-1.8-1.3-1.8-3 0-1.6.4-2.6 1-2.9V7c0-.3.2-.5.5-.5s.5.2.5.5v1.7c0 .3 0 .5-.1.6-.1.1-.3.2-.4.2-.2 0-.5.6-.5 2 0 1.2.5 2 .8 2h.1c.1-.1.3-.1.5 0 .1.1.3.2.3.3.9 3.6 3.6 6.2 6.3 6.2 3 0 5.7-2.4 6.5-5.7 0-.2.1-.3.3-.3.1-.1.3 0 .5 0h.1c.3 0 .8-.8.8-2 0-1.4-.3-2-.5-2-.5 0-.7-.2-.7-.5V7c0-.3.2-.5.5-.5s.5.2.5.5v2.1c.6.3 1 1.3 1 2.9 0 1.7-.8 3-1.8 3-1.1 3.5-4.1 6-7.3 6zm.6-16l-11-1c-.3 0-.5-.2-.5-.5 0-.2.1-.4.4-.5l10-3h.2l11 1c.2 0 .4.2.4.4s-.1.5-.4.5l-10 3c0 .1-.1.1-.1.1zM7.1 3.2l8.3.8 7.4-2.2-8.2-.8-7.5 2.2z M15 9c-5 0-7.6-1.5-7.7-1.6-.2-.1-.3-.2-.3-.4V4c0-.3.2-.5.5-.5s.5.2.5.5v2.7C8.8 7 11.2 8 15 8s6.2-1 7-1.3V2.5c0-.3.2-.5.5-.5s.5.2.5.5V7c0 .2-.1.3-.3.4C22.6 7.5 20 9 15 9zm10.5 3c-.2 0-.4-.1-.5-.3l-1-3v-.4l1-1.9V1.5c0-.3.2-.5.5-.5s.5.2.5.5v4.9l.9 1.9c.1.1.1.2.1.4l-1 3c-.1.2-.3.3-.5.3zM25 8.5l.5 1.4.5-1.4-.5-.9-.5.9z"/></g>
			
	<linearGradient id="picture-gradient" x1="0" y1="0" y2="1" x2="0" >
		<stop stop-color="#3a90ed" offset="0%"/>
		<stop stop-color="#3a90ed" offset="100%"/>
	</linearGradient>

		</defs>

		

			<use xlink:href="#background" fill="url(#background-gradient)" />

		

			<g mask="url(#mask)">
				<g transform="
				        translate(
                                50 50
)
                            translate(0 0)  scale(0.5)  
                            translate(
                                -50 -50
)">
						<use xlink:href="#picture" fill="url(#picture-gradient)"  />
				</g>
			</g>

		



	</svg>
