
	<svg xmlns="http://www.w3.org/2000/svg" xmlns:xlink="http://www.w3.org/1999/xlink" version="1.1" width="128" height="128" viewBox="0 0 100 100">


		<defs>
			<g id="background">
<path fill="url(#background-gradient)" stroke="none" d=" M 90.75 23.05 Q 89.5 23.05 88.85 24.15 88.15 25.25 88.85 26.35 97.25 40.2 95.15 56.15 93.05 71.65 81.75 82.6 70.35 93.7 54.9 95.25 32.95 97.55 17.6 81.85 2.2 66.2 4.85 44.2 6.6 30.2 16.15 19.7 25.65 9.1 39.25 5.8 50.55 3 61.7 5.95 62.85 6.3 63.7 5.65 64.6 5 64.6 3.85 64.6 2.25 62.95 1.7 52.55 -1.1 41.6 0.65 25.55 3.3 14.4 14.85 3.1 26.25 0.65 42.4 -2.95 66.9 14 84.5 30.85 102.1 55.2 99.7 72.6 97.9 85.2 85.4 97.95 72.8 99.7 55.35 101.45 38.55 92.75 24.05 92.05 23.05 90.75 23.05 Z"/>
</g><mask id="mask">
<path fill="#FFFFFF" stroke="none" d=" M 82.2 82.15 Q 95.5 68.85 95.5 49.95 95.5 31.1 82.2 17.8 68.85 4.5 50 4.5 31.15 4.5 17.8 17.8 4.5 31.1 4.5 49.95 4.5 68.85 17.8 82.15 31.15 95.45 50 95.45 68.85 95.45 82.2 82.15 Z"/>
</mask>
			
	<linearGradient id="background-gradient" x1="0" y1="0" y2="1" x2="0" >
		<stop stop-color="#3a90ed" offset="0%"/>
		<stop stop-color="#3a90ed" offset="100%"/>
	</linearGradient>

			
			
			<g transform="scale(3.67647022730755) translate(-1.5 -1.399998664855957)" id="picture"><path d="M6 20.5H2c-.3 0-.5-.2-.5-.5v-8c0-.3.2-.5.5-.5h4c.3 0 .5.2.5.5s-.2.5-.5.5H2.5v7H6c.3 0 .5.2.5.5s-.2.5-.5.5z M5 16.5H2.2c-.3 0-.5-.2-.5-.5s.2-.5.5-.5H5c.3 0 .5.2.5.5s-.2.5-.5.5zm5-1H7c-.3 0-.5-.2-.5-.5s.2-.5.5-.5h3c.3 0 .5.2.5.5s-.2.5-.5.5zm0 2H7c-.3 0-.5-.2-.5-.5s.2-.5.5-.5h3c.3 0 .5.2.5.5s-.2.5-.5.5zm8 3c-.3 0-.5-.2-.5-.5v-6.2l-2.1 3.5c-.2.3-.7.3-.9 0l-2.1-3.5V20c0 .3-.2.5-.5.5s-.5-.2-.5-.5v-8c0-.2.2-.4.4-.5.2-.1.4 0 .6.2L15 16l2.6-4.3c.1-.2.3-.3.6-.2.2.1.4.3.4.5v8c-.1.3-.3.5-.6.5zm4 0c-1.3 0-2.5-1.2-2.5-2.5v-4c0-1.3 1.2-2.5 2.5-2.5s2.5 1.2 2.5 2.5c0 .3-.2.5-.5.5s-.5-.2-.5-.5c0-.8-.7-1.5-1.5-1.5s-1.5.7-1.5 1.5v4c0 .8.7 1.5 1.5 1.5s1.5-.7 1.5-1.5c0-.3.2-.5.5-.5s.5.2.5.5c0 1.3-1.2 2.5-2.5 2.5zm6-6h-2c-.2 0-.4-.1-.4-.3-.1-.2-.1-.4.1-.5l1.7-2.1c.1-.2.2-.4.2-.6 0-.3-.2-.5-.5-.5s-.5.2-.5.5-.2.5-.5.5-.5-.2-.5-.5c0-.8.7-1.5 1.5-1.5s1.5.7 1.5 1.5c0 .4-.1.9-.4 1.2l-1 1.3h1c.3 0 .5.2.5.5s-.4.5-.7.5z"/></g>
			
	<linearGradient id="picture-gradient" x1="0" y1="0" y2="1" x2="0" >
		<stop stop-color="#3a90ed" offset="0%"/>
		<stop stop-color="#3a90ed" offset="100%"/>
	</linearGradient>

		</defs>

		

			<use xlink:href="#background" fill="url(#background-gradient)" />

		

			<g mask="url(#mask)">
				<g transform="
				        translate(
                                50 50
)
                            translate(0 0)  scale(0.5)  
                            translate(
                                -50 -50
)">
						<use xlink:href="#picture" fill="url(#picture-gradient)"  />
				</g>
			</g>

		



	</svg>
